<?xml version="1.0" encoding="iso-8859-1"?>
<!-- Generator: Adobe Illustrator 18.0.0, SVG Export Plug-In . SVG Version: 6.00 Build 0)  -->
<!DOCTYPE svg PUBLIC "-//W3C//DTD SVG 1.1//EN" "http://www.w3.org/Graphics/SVG/1.1/DTD/svg11.dtd">
<svg xmlns="http://www.w3.org/2000/svg" xmlns:xlink="http://www.w3.org/1999/xlink" version="1.1" id="Capa_1" x="0px" y="0px" viewBox="0 0 60 60" style="enable-background:new 0 0 60 60;" xml:space="preserve" width="512px" height="512px">
<path d="M54,7h-1V4.793C53,2.195,50.805,0,48.207,0H11.793C9.195,0,7,2.195,7,4.793V7H6c-3.252,0-6,2.748-6,6v31  c0,3.252,2.748,6,6,6h14.555l8.702,9.669C29.446,59.88,29.716,60,30,60s0.554-0.12,0.743-0.331L39.445,50H54c3.252,0,6-2.748,6-6V13  C60,9.748,57.252,7,54,7z M9,4.793C9,3.279,10.279,2,11.793,2h36.414C49.721,2,51,3.279,51,4.793V7H9V4.793z M58,44  c0,2.168-1.832,4-4,4H41.462l2.313-2.289c0.393-0.389,0.396-1.022,0.007-1.415c-0.389-0.392-1.021-0.395-1.415-0.007l-4.011,3.969  c-0.031,0.027-0.072,0.041-0.1,0.073L30,57.505l-8.257-9.174c-0.006-0.007-0.016-0.009-0.022-0.016  c-0.007-0.008-0.01-0.018-0.017-0.026l-4.042-4c-0.393-0.388-1.025-0.385-1.415,0.007c-0.388,0.393-0.385,1.026,0.007,1.415  L18.568,48H6c-2.168,0-4-1.832-4-4V13c0-2.168,1.832-4,4-4h2h44h2c2.168,0,4,1.832,4,4V44z" fill="#FFFFFF"/>
<g>
</g>
<g>
</g>
<g>
</g>
<g>
</g>
<g>
</g>
<g>
</g>
<g>
</g>
<g>
</g>
<g>
</g>
<g>
</g>
<g>
</g>
<g>
</g>
<g>
</g>
<g>
</g>
<g>
</g>
</svg>
